<svg xmlns="http://www.w3.org/2000/svg" xmlns:xlink="http://www.w3.org/1999/xlink" viewBox="0 0 623.622 870.2362"><defs><style>.cls-1{isolation:isolate;}.cls-11,.cls-2,.cls-34,.cls-46{fill:#fff;}.cls-3{fill:#99a2ac;}.cls-4{fill:#c8c9ca;opacity:0.35;}.cls-10,.cls-4,.cls-7,.cls-8,.cls-9{mix-blend-mode:multiply;}.cls-14,.cls-15,.cls-5{fill:#5ea281;}.cls-6{fill:#436f74;}.cls-7{fill:url(#linear-gradient);}.cls-8{fill:url(#linear-gradient-2);}.cls-9{fill:url(#linear-gradient-3);}.cls-10{fill:url(#linear-gradient-4);}.cls-11{opacity:0.32;mix-blend-mode:overlay;}.cls-12{font-size:27.4031px;}.cls-12,.cls-19,.cls-23,.cls-38,.cls-48{fill:#3a664e;}.cls-12,.cls-48{font-family:SourceSansPro-Black, Source Sans Pro;}.cls-12,.cls-20,.cls-23,.cls-34,.cls-38,.cls-41,.cls-46,.cls-48{font-weight:800;}.cls-13{letter-spacing:-0.04em;}.cls-14{font-family:SourceSansPro-Semibold, Source Sans Pro;font-weight:600;}.cls-15{font-size:19.0159px;font-family:SourceSansPro-Light, Source Sans Pro;font-weight:300;}.cls-16{letter-spacing:-0.015em;}.cls-17{letter-spacing:-0.011em;}.cls-18{letter-spacing:-0.01em;}.cls-20{font-size:25.5875px;}.cls-20,.cls-23,.cls-34,.cls-38,.cls-41,.cls-46{font-family:SourceSansPro-BlackIt, Source Sans Pro;font-style:italic;}.cls-21{letter-spacing:-0.03em;}.cls-22{letter-spacing:-0.04em;}.cls-23{font-size:36.8277px;}.cls-24{letter-spacing:-0.1em;}.cls-25{letter-spacing:-0.024em;}.cls-26{letter-spacing:-0.06em;}.cls-27{letter-spacing:0em;}.cls-28{font-size:17.6918px;font-family:SourceSansPro-Bold, Source Sans Pro;font-weight:700;}.cls-29{font-size:10.6972px;fill:#1a1b1b;font-family:SourceSansPro-ExtraLight, Source Sans Pro;font-weight:200;}.cls-30{letter-spacing:-0.01em;}.cls-31{letter-spacing:0.022em;}.cls-32{letter-spacing:-0.016em;}.cls-33{letter-spacing:0em;}.cls-34{font-size:23.7347px;}.cls-35{letter-spacing:-0.01em;}.cls-36{letter-spacing:-0.02em;}.cls-37{letter-spacing:0em;}.cls-38{font-size:62.3441px;letter-spacing:-0.1em;}.cls-39{letter-spacing:-0.024em;}.cls-40{letter-spacing:0em;}.cls-41{font-size:40.4389px;letter-spacing:-0.1em;}.cls-42{letter-spacing:-0.02em;}.cls-43{letter-spacing:0em;}.cls-44{letter-spacing:-0.022em;}.cls-45{letter-spacing:-0.02em;}.cls-46{font-size:18.5155px;}.cls-47{letter-spacing:-0.03em;}.cls-48{font-size:28.1777px;}</style><linearGradient id="linear-gradient" x1="181.835" y1="360.8158" x2="166.7395" y2="436.2937" gradientUnits="userSpaceOnUse"><stop offset="0" stop-color="#fff"/><stop offset="1" stop-color="#436f74"/></linearGradient><linearGradient id="linear-gradient-2" x1="446.2547" y1="485.2681" x2="462.7662" y2="321.9878" xlink:href="#linear-gradient"/><linearGradient id="linear-gradient-3" x1="426.9793" y1="852.2371" x2="334.4376" y2="721.0212" xlink:href="#linear-gradient"/><linearGradient id="linear-gradient-4" x1="84.4114" y1="825.0112" x2="240.5854" y2="706.0483" xlink:href="#linear-gradient"/></defs><title>poster3</title><g class="cls-1"><g id="PRINT"><rect class="cls-2" width="623.622" height="870.2362"/><path class="cls-3" d="M609.4488-14.1732v352.309l-281.463,91.19a98.3864,98.3864,0,0,1-60.6751.0207L-14.1732,338.1358V-14.1732Z" transform="translate(14.1732 14.1732)"/><path class="cls-4" d="M609.4488,448.14V506.7c0,89.0021-95.6231,145.6745-174.3,103.2975C277.4606,525.0628,59.0786,407.5729-14.1732,368.8227V338.1358L296.4714,489.27a165.7248,165.7248,0,0,0,114.7263,11.21Z" transform="translate(14.1732 14.1732)"/><path class="cls-5" d="M328.6945,813.948l-42.3359,42.115H-14.1732V769.1616H310.0461C333.5418,769.1616,345.3084,797.4207,328.6945,813.948Z" transform="translate(14.1732 14.1732)"/><path class="cls-5" d="M609.4488,338.1358V448.14L411.194,500.47a165.6671,165.6671,0,0,1-114.7279-11.1935L-14.1732,338.1358,267.3107,429.347a98.3864,98.3864,0,0,0,60.6751-.0207Z" transform="translate(14.1732 14.1732)"/><path class="cls-6" d="M327.9858,429.3263l69.4554-22.5027-19.7168-.1509a248.8756,248.8756,0,0,1-123.1335-33.6636L-14.1732,216.8182V338.1358L267.3107,429.347A98.3864,98.3864,0,0,0,327.9858,429.3263Z" transform="translate(14.1732 14.1732)"/><path class="cls-7" d="M327.9858,429.3263l69.4554-22.5027-19.7168-.1509a248.8756,248.8756,0,0,1-123.1335-33.6636L-14.1732,216.8182V338.1358L267.3107,429.347A98.3864,98.3864,0,0,0,327.9858,429.3263Z" transform="translate(14.1732 14.1732)"/><path class="cls-8" d="M296.466,489.2765A165.667,165.667,0,0,0,411.1941,500.47L609.4488,448.14V338.1358L286.8814,484.6131Z" transform="translate(14.1732 14.1732)"/><path class="cls-6" d="M609.4488,807.3493V856.063H215.55l33.6807-33.505a51.24,51.24,0,0,1,36.1175-14.9393C349.2521,807.4736,540.2338,807.0592,609.4488,807.3493Z" transform="translate(14.1732 14.1732)"/><path class="cls-9" d="M609.4488,807.3493V856.063H215.55l33.6807-33.505a51.24,51.24,0,0,1,36.1175-14.9393C349.2521,807.4736,540.2338,807.0592,609.4488,807.3493Z" transform="translate(14.1732 14.1732)"/><path class="cls-2" d="M326.4443-14.1732,237.1918,74.6137a66.8375,66.8375,0,0,1-47.1361,19.4357H-14.1732V-14.1732Z" transform="translate(14.1732 14.1732)"/><path class="cls-10" d="M-14.1732,769.1616V856.063H215.55l22.6289-23.441c23.003-23.8286,6.0266-63.46-27.1835-63.46Z" transform="translate(14.1732 14.1732)"/><path class="cls-11" d="M609.4488-14.1732V336.85L436.2523,392.97C365.9025,415.765,293.68,363.6062,293.68,290.0045V171.9581a98.0854,98.0854,0,0,1,25.7447-66.181l109.7692-119.95Z" transform="translate(14.1732 14.1732)"/><text class="cls-12" transform="translate(109.5263 47.7919) scale(1.0052 1)"><tspan class="cls-13">L</tspan><tspan x="13.4277" y="0">OGO</tspan><tspan class="cls-5" x="69.0551" y="0"> </tspan><tspan class="cls-14" x="74.5357" y="0">NAME</tspan></text><text class="cls-15" transform="translate(109.6396 69.3788) scale(1.0052 1)">slo<tspan class="cls-16" x="22.3813" y="0">g</tspan><tspan x="31.3567" y="0">an </tspan><tspan class="cls-17" x="54.6132" y="0">g</tspan><tspan x="63.6649" y="0">oes he</tspan><tspan class="cls-18" x="113.7516" y="0">r</tspan><tspan x="119.5897" y="0">e</tspan></text><path class="cls-5" d="M41.0262,11.1305V21.4119a7.63,7.63,0,0,1-7.65,7.61H23.0408L16.0517,16.645a3.7018,3.7018,0,0,1,3.2442-5.5145Z" transform="translate(14.1732 14.1732)"/><path class="cls-5" d="M53.52,59.3925v-10.85a7.06,7.06,0,0,1,7.0786-7.0417H71.5053L78.4944,53.878A3.7018,3.7018,0,0,1,75.25,59.3925Z" transform="translate(14.1732 14.1732)"/><path class="cls-5" d="M23.0155,41.4757H35.6537a5.3334,5.3334,0,0,1,5.3472,5.3194V59.3673L28.5589,66.32a3.7209,3.7209,0,0,1-5.5434-3.2273Z" transform="translate(14.1732 14.1732)"/><path class="cls-5" d="M71.5306,29.0472h-8.697a9.2642,9.2642,0,0,1-9.2884-9.24V11.1556L65.9872,4.203A3.7209,3.7209,0,0,1,71.5306,7.43Z" transform="translate(14.1732 14.1732)"/><path class="cls-19" d="M63.5628,32.9413H56.2484a6.71,6.71,0,0,1-6.7273-6.6922V18.9729a1.7611,1.7611,0,0,0-1.7657-1.7565h0A1.7612,1.7612,0,0,0,45.99,18.9729v7.2762a6.71,6.71,0,0,1-6.7273,6.6922H31.948a1.7611,1.7611,0,0,0-1.7657,1.7565h0a1.7611,1.7611,0,0,0,1.7657,1.7565h7.3143A6.71,6.71,0,0,1,45.99,43.1465v7.2763a1.7612,1.7612,0,0,0,1.7657,1.7565h0a1.7611,1.7611,0,0,0,1.7657-1.7565V43.1465a6.71,6.71,0,0,1,6.7273-6.6922h7.3144a1.7612,1.7612,0,0,0,1.7657-1.7565h0A1.7612,1.7612,0,0,0,63.5628,32.9413Z" transform="translate(14.1732 14.1732)"/><text class="cls-20" transform="translate(36.8676 500.8788) scale(1.0052 1)"><tspan class="cls-21">S</tspan><tspan x="12.9983" y="0">TEP </tspan><tspan class="cls-22" x="60.8977" y="0">B</tspan><tspan x="75.5339" y="0">Y </tspan><tspan class="cls-21" x="94.1614" y="0">S</tspan><tspan x="107.1597" y="0">TEP</tspan></text><text class="cls-23" transform="translate(35.0116 535.0859) scale(1.0052 1)"><tspan class="cls-24">V</tspan><tspan class="cls-25" x="17.5297" y="0">A</tspan><tspan class="cls-24" x="37.3434" y="0">C</tspan><tspan x="54.7998" y="0">CIN</tspan><tspan class="cls-26" x="111.3666" y="0">A</tspan><tspan class="cls-27" x="129.8538" y="0">TION</tspan></text><path d="M47.5462,416.7937v-1.46h-8.043v1.4784a1.78,1.78,0,0,1-.7466,1.4481l-5.1872,3.7071a5.74,5.74,0,0,0-2.4075,4.6693v20.239a4.1516,4.1516,0,0,0,4.1625,4.1406H51.7513a4.1516,4.1516,0,0,0,4.1624-4.1406V426.637a5.74,5.74,0,0,0-2.4074-4.6693l-5.2135-3.7259A1.78,1.78,0,0,1,47.5462,416.7937Z" transform="translate(14.1732 14.1732)"/><rect class="cls-5" x="37.0269" y="409.0896" width="13.0218" height="4.6781" rx="1.3595" transform="translate(101.2488 837.0305) rotate(180)"/><rect class="cls-5" x="49.6191" y="443.273" width="16.1839" height="11.3643" rx="1.9486"/><rect class="cls-5" x="99.0938" y="445.9332" width="25.1922" height="15.5375"/><rect x="68.9552" y="437.5157" width="13.5068" height="4.026" transform="translate(165.5904 893.2306) rotate(180)"/><rect x="114.4231" y="427.6801" width="4.9294" height="23.7037" transform="translate(247.9488 893.2371) rotate(180)"/><rect x="133.5257" y="448.8204" width="11.2934" height="9.7695"/><rect x="130.6459" y="430.2134" width="3.6188" height="17.6934" transform="translate(279.0838 892.2934) rotate(180)"/><text class="cls-28" transform="translate(35.4233 580.7988) scale(1.0052 1)">01. TITLE GOES HERE</text><text class="cls-29" transform="translate(48.5868 602.0458) scale(1.0052 1)"><tspan class="cls-30">L</tspan><tspan x="4.8136" y="0">o</tspan><tspan class="cls-30" x="10.5045" y="0">r</tspan><tspan x="13.671" y="0">em ipsum dolor sit am</tspan><tspan class="cls-30" x="109.2163" y="0">e</tspan><tspan class="cls-31" x="114.2228" y="0">t</tspan><tspan x="117.688" y="0">, </tspan><tspan class="cls-32" x="122.0523" y="0">c</tspan><tspan x="126.6523" y="0">onse</tspan><tspan class="cls-30" x="147.3621" y="0">cte</tspan><tspan class="cls-33" x="160.1559" y="0">tuer adipiscing </tspan><tspan x="0" y="12.8359">eli</tspan><tspan class="cls-31" x="9.9484" y="12.8359">t</tspan><tspan x="13.4141" y="12.8359">, sed diam nonummy nibh euismod tincidun</tspan><tspan class="cls-31" x="202.1313" y="12.8359">t</tspan><tspan x="205.5965" y="12.8359">,</tspan></text><path d="M220.0885,572.2591H209.7563a4.8072,4.8072,0,0,1-4.8137-4.79V553.8354a4.8055,4.8055,0,0,1,4.8137-4.7876h10.3322a4.8063,4.8063,0,0,1,4.8146,4.7876V567.47A4.808,4.808,0,0,1,220.0885,572.2591ZM209.7563,551.12a2.7259,2.7259,0,0,0-2.7307,2.7155V567.47a2.7264,2.7264,0,0,0,2.7307,2.7176h10.3322A2.7272,2.7272,0,0,0,222.82,567.47V553.8354a2.7267,2.7267,0,0,0-2.7317-2.7155Z" transform="translate(14.1732 14.1732)"/><rect x="224.3729" y="569.2611" width="9.4453" height="2.072"/><rect x="224.3729" y="574.6294" width="9.4453" height="2.072"/><rect x="226.3318" y="579.4958" width="5.6497" height="2.0721"/><text class="cls-28" transform="translate(35.4233 650.3632) scale(1.0052 1)">02. TITLE GOES HERE</text><text class="cls-29" transform="translate(48.5868 671.6142) scale(1.0052 1)"><tspan class="cls-30">L</tspan><tspan x="4.8136" y="0">o</tspan><tspan class="cls-30" x="10.5045" y="0">r</tspan><tspan x="13.671" y="0">em ipsum dolor sit am</tspan><tspan class="cls-30" x="109.2163" y="0">e</tspan><tspan class="cls-31" x="114.2228" y="0">t</tspan><tspan x="117.688" y="0">, </tspan><tspan class="cls-32" x="122.0523" y="0">c</tspan><tspan x="126.6523" y="0">onse</tspan><tspan class="cls-30" x="147.3621" y="0">cte</tspan><tspan class="cls-33" x="160.1559" y="0">tuer adipiscing </tspan><tspan x="0" y="12.8359">eli</tspan><tspan class="cls-31" x="9.9484" y="12.8359">t</tspan><tspan x="13.4141" y="12.8359">, sed diam nonummy nibh euismod tincidun</tspan><tspan class="cls-31" x="202.1313" y="12.8359">t</tspan><tspan x="205.5965" y="12.8359">,</tspan></text><path d="M214.9229,624.0176a5.9582,5.9582,0,1,1,5.9884-5.9591A5.981,5.981,0,0,1,214.9229,624.0176Zm0-9.8442a3.8861,3.8861,0,1,0,3.9054,3.8851A3.9,3.9,0,0,0,214.9229,614.1734Z" transform="translate(14.1732 14.1732)"/><path d="M227.9716,640.6648H201.8732v-7.3817a6.9183,6.9183,0,0,1,6.9291-6.8919h12.2412a6.9181,6.9181,0,0,1,6.9281,6.8919Zm-24.0155-2.0721h21.9326v-5.31a4.8386,4.8386,0,0,0-4.8452-4.82H208.8023a4.8394,4.8394,0,0,0-4.8462,4.82Z" transform="translate(14.1732 14.1732)"/><rect x="222.1365" y="648.4741" width="2.0829" height="5.2429"/><rect x="233.9718" y="648.4741" width="2.0829" height="5.2429"/><text class="cls-28" transform="translate(35.4233 722.371) scale(1.0052 1)">03. TITLE GOES HERE</text><text class="cls-29" transform="translate(48.5868 743.62) scale(1.0052 1)"><tspan class="cls-30">L</tspan><tspan x="4.8136" y="0">o</tspan><tspan class="cls-30" x="10.5045" y="0">r</tspan><tspan x="13.671" y="0">em ipsum dolor sit am</tspan><tspan class="cls-30" x="109.2163" y="0">e</tspan><tspan class="cls-31" x="114.2228" y="0">t</tspan><tspan x="117.688" y="0">, </tspan><tspan class="cls-32" x="122.0523" y="0">c</tspan><tspan x="126.6523" y="0">onse</tspan><tspan class="cls-30" x="147.3621" y="0">cte</tspan><tspan class="cls-33" x="160.1559" y="0">tuer adipiscing </tspan><tspan x="0" y="12.8359">eli</tspan><tspan class="cls-31" x="9.9484" y="12.8359">t</tspan><tspan x="13.4141" y="12.8359">, sed diam nonummy nibh euismod tincidun</tspan><tspan class="cls-31" x="202.1313" y="12.8359">t</tspan><tspan x="205.5965" y="12.8359">,</tspan></text><path d="M214.3462,711.1506l-10.3138-10.2591,8.8045-8.7576L223.15,702.393Zm-7.3684-10.2591,7.3684,7.3291,5.8582-5.8276-7.3675-7.3291Z" transform="translate(14.1732 14.1732)"/><polygon points="222.321 711.866 216.929 706.501 218.402 705.036 223.793 710.401 222.321 711.866"/><polygon points="226.884 727.238 225.411 725.773 237.774 713.474 239.246 714.939 226.884 727.238"/><polygon points="237.518 726.983 231.808 721.303 233.28 719.838 238.991 725.518 237.518 726.983"/><polygon points="236.079 728.956 234.606 727.491 239.789 722.335 241.262 723.8 236.079 728.956"/><text class="cls-34" transform="translate(48.9189 817.6034) scale(1.0052 1)"><tspan class="cls-35">F</tspan><tspan x="12.0098" y="0">oll</tspan><tspan class="cls-36" x="38.4023" y="0">o</tspan><tspan class="cls-37" x="50.7444" y="0">w us :</tspan></text><path class="cls-2" d="M43.3044,819.72a9.9453,9.9453,0,1,0,10.05,9.9449A9.9983,9.9983,0,0,0,43.3044,819.72Zm2.4973,6.4668H44.6222c-.4161,0-.5027.1685-.5027.5947v1.0295h1.6822l-.1619,1.8084H44.12v5.4H41.9406v-5.3769H40.8065v-1.8312h1.1341V826.37c0-1.353.7314-2.0593,2.3527-2.0593h1.5084Z" transform="translate(14.1732 14.1732)"/><path class="cls-2" d="M131.5894,827.9691a1.6971,1.6971,0,1,0,1.7137,1.6955A1.7062,1.7062,0,0,0,131.5894,827.9691Z" transform="translate(14.1732 14.1732)"/><path class="cls-2" d="M135.5973,826.6659a1.7019,1.7019,0,0,0-.9774-.9677,2.8685,2.8685,0,0,0-.9533-.1765c-.5428-.0213-.7069-.028-2.0772-.028-1.3747,0-1.5388.0067-2.0813.028a2.8851,2.8851,0,0,0-.9527.1765,1.6992,1.6992,0,0,0-.978.9677,2.839,2.839,0,0,0-.1753.9428c-.0247.5375-.0315.6992-.0315,2.0559,0,1.3592.0068,1.5224.0315,2.0593a2.8573,2.8573,0,0,0,.1753.9428,1.6991,1.6991,0,0,0,.978.9681,2.9573,2.9573,0,0,0,.9527.1731c.5425.0243.7066.0317,2.0813.0317,1.37,0,1.5344-.0074,2.0772-.0317a2.94,2.94,0,0,0,.9533-.1731,1.61,1.61,0,0,0,.5917-.3817,1.581,1.581,0,0,0,.3857-.5864,2.7512,2.7512,0,0,0,.1753-.9428c.0244-.5369.0318-.7.0318-2.0593,0-1.3567-.0074-1.5184-.0318-2.0559A2.7342,2.7342,0,0,0,135.5973,826.6659Zm-4.0079,5.6122a2.6133,2.6133,0,1,1,2.64-2.6135A2.6265,2.6265,0,0,1,131.5894,832.2781Zm2.7443-4.7189a.6107.6107,0,1,1,.6179-.61A.6123.6123,0,0,1,134.3337,827.5592Z" transform="translate(14.1732 14.1732)"/><path class="cls-2" d="M131.5872,819.72a9.9454,9.9454,0,1,0,10.0493,9.9449A9.997,9.997,0,0,0,131.5872,819.72ZM136.7,831.763a3.7633,3.7633,0,0,1-.239,1.2355,2.4923,2.4923,0,0,1-.5926.9007,2.5312,2.5312,0,0,1-.914.59,3.8493,3.8493,0,0,1-1.2457.2371c-.55.0243-.7243.0286-2.12.0286-1.3991,0-1.5743-.0043-2.12-.0286a3.8559,3.8559,0,0,1-1.25-.2371,2.5184,2.5184,0,0,1-.91-.59,2.4415,2.4415,0,0,1-.596-.9007,3.7368,3.7368,0,0,1-.2392-1.2355c-.0254-.5412-.0288-.714-.0288-2.0984,0-1.381.0034-1.5541.0288-2.0978a3.7241,3.7241,0,0,1,.2392-1.233,2.4594,2.4594,0,0,1,.596-.9038,2.5163,2.5163,0,0,1,.91-.5864,3.8328,3.8328,0,0,1,1.25-.2368c.5459-.0246.7211-.0323,2.12-.0323,1.3953,0,1.57.0077,2.12.0323a3.8261,3.8261,0,0,1,1.2457.2368,2.5984,2.5984,0,0,1,1.5066,1.49,3.75,3.75,0,0,1,.239,1.233c.0247.5437.0287.7168.0287,2.0978C136.729,831.049,136.725,831.2218,136.7,831.763Z" transform="translate(14.1732 14.1732)"/><path class="cls-2" d="M88.222,819.72a9.9453,9.9453,0,1,0,10.05,9.9449A9.9981,9.9981,0,0,0,88.222,819.72Zm4.4722,7.559c-.0132,1.6365-.2862,4.9087-3.84,6.4542a6.794,6.794,0,0,1-6.47-.644,4.1658,4.1658,0,0,0,3.4741-.8487,2.264,2.264,0,0,1-2.1721-1.6632,4.8836,4.8836,0,0,0,1.0337-.02,2.48,2.48,0,0,1-1.8269-2.4145,3.0572,3.0572,0,0,0,1.03.3874,2.4033,2.4033,0,0,1-.558-3.0018,6.3666,6.3666,0,0,0,4.6373,2.3358,3.2809,3.2809,0,0,1,.0368-.7884,2.4658,2.4658,0,0,1,1.8123-1.9637,2.3826,2.3826,0,0,1,2.1731.6208,6.8219,6.8219,0,0,0,1.51-.492,6.5692,6.5692,0,0,1-.7894,1.2186c.1431.0126,1.3131-.2983,1.3131-.2983A6.4569,6.4569,0,0,1,92.6942,827.2787Z" transform="translate(14.1732 14.1732)"/><text class="cls-38" transform="translate(347.3691 620.3573) scale(1.0052 1)">V<tspan class="cls-39" x="29.6756" y="0">A</tspan><tspan x="63.2176" y="0">C</tspan><tspan class="cls-40" x="92.7688" y="0">CINE</tspan></text><text class="cls-41" transform="translate(411.1659 562.332) scale(1.0052 1)">C<tspan class="cls-42" x="19.1681" y="0">O</tspan><tspan class="cls-43" x="45.4532" y="0">VID-19</tspan></text><text class="cls-29" transform="translate(349.5566 649.245) scale(1.0052 1)"><tspan class="cls-30">L</tspan><tspan x="4.8136" y="0">o</tspan><tspan class="cls-30" x="10.5045" y="0">r</tspan><tspan x="13.6706" y="0">em ipsum dolor sit am</tspan><tspan class="cls-30" x="109.2129" y="0">e</tspan><tspan class="cls-31" x="114.2189" y="0">t</tspan><tspan x="117.6841" y="0">, </tspan><tspan class="cls-32" x="122.048" y="0">c</tspan><tspan x="126.6479" y="0">onse</tspan><tspan class="cls-30" x="147.3568" y="0">cte</tspan><tspan x="160.1501" y="0">tuer adipiscing </tspan><tspan x="1.9051" y="12.8359">eli</tspan><tspan class="cls-31" x="11.8529" y="12.8359">t</tspan><tspan x="15.3182" y="12.8359">, sed diam nonummy nibh euismod tincidunt u</tspan><tspan class="cls-44" x="215.0052" y="12.8359">t</tspan><tspan x="218.0003" y="12.8359">a </tspan><tspan x="0.5984" y="25.6729">lao</tspan><tspan class="cls-30" x="13.9484" y="25.6729">r</tspan><tspan x="17.1144" y="25.6729">e</tspan><tspan class="cls-30" x="22.2273" y="25.6729">e</tspan><tspan x="27.2333" y="25.6729">t dolo</tspan><tspan class="cls-30" x="52.2215" y="25.6729">r</tspan><tspan x="55.3875" y="25.6729">e magna aliquam e</tspan><tspan class="cls-45" x="137.0456" y="25.6729">r</tspan><tspan class="cls-30" x="140.1047" y="25.6729">a</tspan><tspan x="145.1962" y="25.6729">t volut</tspan><tspan class="cls-32" x="172.0671" y="25.6729">p</tspan><tspan class="cls-30" x="177.6725" y="25.6729">a</tspan><tspan class="cls-31" x="182.764" y="25.6729">t</tspan><tspan x="186.2292" y="25.6729">. Ut wisis </tspan><tspan x="122.7805" y="38.5098">enim ad minim veniam.</tspan></text><text class="cls-46" transform="translate(307.6191 854.4941) scale(1.0052 1)">REGI<tspan class="cls-47" x="38.4751" y="0">S</tspan><tspan x="47.8809" y="0">TER HERE : +23 3838 38383</tspan></text><text class="cls-48" transform="translate(373.6464 748.9726) scale(1.0052 1)">FREE</text><text class="cls-48" transform="translate(379.0282 776.9003) scale(1.0052 1)">AND</text><text class="cls-48" transform="translate(374.1845 804.1034) scale(1.0052 1)">SAFE</text></g></g></svg>