<svg xmlns="http://www.w3.org/2000/svg" xmlns:xlink="http://www.w3.org/1999/xlink" viewBox="0 0 437.9528 613.2094"><defs><style>.cls-1{isolation:isolate;}.cls-12,.cls-13,.cls-14,.cls-15,.cls-2{fill:#fff;}.cls-3{fill:url(#linear-gradient);}.cls-4{opacity:0.39;fill:url(#linear-gradient-2);}.cls-4,.cls-5{mix-blend-mode:multiply;}.cls-5{opacity:0.2;fill:url(#linear-gradient-3);}.cls-6{fill:#d3d3d3;}.cls-10,.cls-7,.cls-9{fill:#6db4e4;}.cls-7{opacity:0.8;}.cls-8{fill:#fbf5b8;}.cls-8,.cls-9{opacity:0.7;}.cls-10{opacity:0.3;}.cls-11{font-size:39.9335px;fill:#363a7b;font-family:AbrilFatface-Regular, Abril Fatface;}.cls-12{font-size:10.9482px;}.cls-12,.cls-28{font-family:BebasNeueBook;}.cls-13{font-size:20.3744px;font-family:BebasNeueBold;}.cls-14{font-size:6.4357px;}.cls-14,.cls-15,.cls-29{font-family:Montserrat-Regular, Montserrat;}.cls-15{font-size:7px;}.cls-16{letter-spacing:-0.0081em;}.cls-17{letter-spacing:-0.0129em;}.cls-18{letter-spacing:0.0019em;}.cls-19{letter-spacing:0.01em;}.cls-20{letter-spacing:-0.009em;}.cls-21{letter-spacing:0.006em;}.cls-22{letter-spacing:-0.0189em;}.cls-23{letter-spacing:0.0021em;}.cls-24{letter-spacing:0.0099em;}.cls-25{letter-spacing:-0.01em;}.cls-26{letter-spacing:-0.015em;}.cls-27{letter-spacing:-0.0029em;}.cls-28{font-size:14.4266px;}.cls-28,.cls-29,.cls-49{fill:#5079bc;}.cls-29{font-size:6px;}.cls-30{letter-spacing:-0.0079em;}.cls-31{letter-spacing:-0.013em;}.cls-32{letter-spacing:0.0019em;}.cls-33{letter-spacing:0.0101em;}.cls-34{letter-spacing:-0.0091em;}.cls-35{letter-spacing:0.006em;}.cls-36{letter-spacing:-0.019em;}.cls-37{letter-spacing:0.0021em;}.cls-38{letter-spacing:0.0099em;}.cls-39{letter-spacing:-0.0099em;}.cls-40{letter-spacing:-0.0131em;}.cls-41{letter-spacing:-0.0089em;}.cls-42{letter-spacing:-0.0151em;}.cls-43{letter-spacing:-0.0029em;}.cls-44{letter-spacing:-0.0149em;}.cls-45{letter-spacing:-0.0191em;}.cls-46{letter-spacing:0.0149em;}.cls-47{letter-spacing:-0.0081em;}.cls-48{letter-spacing:-0.0101em;}</style><linearGradient id="linear-gradient" x1="294.5003" y1="307.0676" x2="437.9528" y2="307.0676" gradientUnits="userSpaceOnUse"><stop offset="0" stop-color="#6983b3"/><stop offset="1" stop-color="#6b7fab"/></linearGradient><linearGradient id="linear-gradient-2" x1="3149.2954" y1="3145.4039" x2="3170.2464" y2="3145.4039" gradientTransform="translate(-2949.3009 -2764.3604)" gradientUnits="userSpaceOnUse"><stop offset="0" stop-color="#262e63"/><stop offset="1" stop-color="#fff" stop-opacity="0"/></linearGradient><linearGradient id="linear-gradient-3" x1="294.5003" y1="307.0676" x2="333.1015" y2="307.0676" gradientTransform="matrix(1, 0, 0, 1, 0, 0)" xlink:href="#linear-gradient-2"/></defs><title>poster2</title><g class="cls-1"><g id="PRINT"><polygon class="cls-2" points="8.506 8.965 8.506 8.965 8.506 8.965 8.506 8.965 8.506 8.965"/><rect class="cls-2" y="0.9259" width="437.9528" height="612.2835"/><rect class="cls-3" x="294.5003" y="0.9259" width="143.4525" height="612.2835"/><rect class="cls-4" x="199.9945" y="162.0671" width="20.951" height="437.9528" transform="translate(600.0199 179.5382) rotate(90)"/><rect class="cls-5" x="294.5003" y="0.9259" width="38.6012" height="612.2835"/><rect class="cls-6" y="115.9106" width="437.9528" height="263.6221"/><rect class="cls-7" x="250.6977" y="333.8481" width="187.2551" height="74.5193"/><rect class="cls-8" y="106.6078" width="250.6977" height="28.9865"/><rect class="cls-8" x="228.2503" y="395.8987" width="209.7025" height="5.8905"/><rect class="cls-9" y="567.9731" width="437.9528" height="45.2363"/><rect class="cls-8" y="587.6011" width="250.6977" height="25.6083"/><rect class="cls-9" width="437.9528" height="22.6182"/><rect class="cls-10" x="250.6977" y="0.9259" width="187.2551" height="153.3909"/><rect class="cls-8" x="228.2503" y="58.4835" width="209.7025" height="5.8906"/><text class="cls-11" transform="translate(35.3306 91.1863)">business</text><text class="cls-12" transform="translate(313.8006 87.5734)">FLYER TEMPLATE</text><text class="cls-13" transform="translate(311.1338 367.5854)">HIGHLIGHT 1.2</text><path class="cls-2" d="M366.7281,31.8515l3.754,3.7539-3.754,3.7539L359.22,31.8515l7.5078-7.5079,3.754,3.7539Zm15.0158,0-7.5079-7.5079-3.7539,3.7539,3.7539,3.754-3.7539,3.7539,3.7539,3.7539Z" transform="translate(8.5064 8.9647)"/><text class="cls-14" transform="translate(324.8994 511.0941)">hello@yourcompany.com<tspan x="0" y="11.2627">www.yourcompany.com</tspan><tspan x="0" y="22.5244">+12 345 6789 0</tspan><tspan x="0" y="33.7871">Your Address, ABC-123</tspan></text><polygon class="cls-2" points="318.588 505.984 311.84 505.984 315.214 508.896 318.588 505.984"/><polygon class="cls-2" points="315.214 510.282 311.495 507.072 311.495 511.612 318.933 511.612 318.933 507.072 315.214 510.282"/><path class="cls-2" d="M306.7077,507.2155a4.0457,4.0457,0,1,0,4.0458,4.0457A4.05,4.05,0,0,0,306.7077,507.2155Zm3.022,3.5553h-1.3936a8.0761,8.0761,0,0,0-.3935-2.3125A3.07,3.07,0,0,1,309.73,510.7708Zm-3.6667.9808h1.2892a4.4843,4.4843,0,0,1-.6445,2.5573A4.4825,4.4825,0,0,1,306.063,511.7516Zm0-.9808a4.4825,4.4825,0,0,1,.6447-2.5573,4.4843,4.4843,0,0,1,.6445,2.5573Zm-.59-2.3125a8.0773,8.0773,0,0,0-.3935,2.3125h-1.3935A3.0711,3.0711,0,0,1,305.4727,508.4583Zm-1.787,3.2933h1.3935a8.0761,8.0761,0,0,0,.3935,2.3125A3.0708,3.0708,0,0,1,303.6857,511.7516Zm4.2569,2.3126a8.0774,8.0774,0,0,0,.3935-2.3126H309.73A3.0706,3.0706,0,0,1,307.9426,514.0642Z" transform="translate(8.5064 8.9647)"/><path class="cls-2" d="M310.0356,524.0359l-.9246-.9248a.4153.4153,0,0,0-.5907.0181c-1.0248,1.145-2.4121-.3639-2.4121-.3639s-1.5089-1.3873-.364-2.412a.4151.4151,0,0,0,.0182-.5907l-.9247-.9248a.53.53,0,0,0-.7264.1324,2.8461,2.8461,0,0,0-.8177,1.6072c-.1588,1.5158,1.6639,3.3385,1.6639,3.3385s1.8229,1.8229,3.3386,1.6641a2.8477,2.8477,0,0,0,1.6072-.8178A.53.53,0,0,0,310.0356,524.0359Z" transform="translate(8.5064 8.9647)"/><path class="cls-2" d="M306.7078,528.759a2.96,2.96,0,0,0-2.96,2.96c0,1.6344,2.96,5.2194,2.96,5.2194s2.9595-3.585,2.9595-5.2194A2.96,2.96,0,0,0,306.7078,528.759Zm0,3.5047a1.0554,1.0554,0,1,1,1.0553-1.0553A1.0554,1.0554,0,0,1,306.7078,532.2637Z" transform="translate(8.5064 8.9647)"/><text class="cls-15" transform="translate(310.9356 438.5253)"><tspan class="cls-16">L</tspan><tspan x="4.0669" y="0">o</tspan><tspan class="cls-17" x="8.4558" y="0">r</tspan><tspan x="11.1722" y="0">em ipsum dolor sit a</tspan><tspan class="cls-18" x="82.8443" y="0">m</tspan><tspan x="90.2853" y="0">e</tspan><tspan class="cls-19" x="94.5137" y="0">t</tspan><tspan x="97.4257" y="0">, </tspan><tspan class="cls-20" x="0" y="8.3999">c</tspan><tspan x="3.8781" y="8.3999">onse</tspan><tspan class="cls-21" x="20.6573" y="8.3999">c</tspan><tspan class="cls-22" x="24.6405" y="8.3999">t</tspan><tspan x="27.3501" y="8.3999">etuer </tspan><tspan class="cls-18" x="48.0006" y="8.3999">a</tspan><tspan x="52.1444" y="8.3999">dipisci</tspan><tspan class="cls-23" x="74.6483" y="8.3999">n</tspan><tspan x="79.4021" y="8.3999">g eli</tspan><tspan class="cls-24" x="94.0321" y="8.3999">t</tspan><tspan x="96.9431" y="8.3999">, </tspan><tspan x="0" y="16.8003">sed diam </tspan><tspan class="cls-18" x="34.2511" y="16.8003">n</tspan><tspan x="39.0039" y="16.8003">onum</tspan><tspan class="cls-25" x="60.2703" y="16.8003">m</tspan><tspan x="67.6276" y="16.8003">y nibh </tspan><tspan x="0" y="25.2002">euis</tspan><tspan class="cls-18" x="14.2447" y="25.2002">m</tspan><tspan x="21.6857" y="25.2002">od ti</tspan><tspan class="cls-23" x="37.3791" y="25.2002">n</tspan><tspan x="42.1329" y="25.2002">cidunt ut </tspan><tspan x="0" y="33.6001">l</tspan><tspan class="cls-18" x="1.8826" y="33.6001">a</tspan><tspan x="6.0263" y="33.6001">o</tspan><tspan class="cls-17" x="10.4153" y="33.6001">r</tspan><tspan x="13.1317" y="33.6001">eet dolo</tspan><tspan class="cls-17" x="41.6707" y="33.6001">r</tspan><tspan x="44.3872" y="33.6001">e m</tspan><tspan class="cls-18" x="57.8769" y="33.6001">a</tspan><tspan x="62.0206" y="33.6001">gna </tspan><tspan x="0" y="42">aliquam e</tspan><tspan class="cls-20" x="34.9721" y="42">r</tspan><tspan x="37.7158" y="42">at </tspan><tspan class="cls-26" x="46.5218" y="42">v</tspan><tspan x="50.2102" y="42">olut</tspan><tspan class="cls-27" x="64.0346" y="42">p</tspan><tspan x="68.7601" y="42">a</tspan><tspan class="cls-19" x="72.8902" y="42">t</tspan><tspan x="75.8022" y="42">.</tspan></text><text class="cls-28" transform="translate(16.8328 422.5744)">LOREM IPSUM</text><text class="cls-29" transform="translate(45.9329 438.8557)"><tspan class="cls-30">L</tspan><tspan x="3.486" y="0">o</tspan><tspan class="cls-31" x="7.2484" y="0">r</tspan><tspan x="9.5766" y="0">em ipsum dolor sit a</tspan><tspan class="cls-32" x="71.0125" y="0">m</tspan><tspan x="77.39" y="0">e</tspan><tspan class="cls-33" x="81.0142" y="0">t</tspan><tspan x="83.5108" y="0">, </tspan><tspan class="cls-34" x="86.3546" y="0">c</tspan><tspan x="89.6782" y="0">onse</tspan><tspan class="cls-35" x="104.0611" y="0">c</tspan><tspan class="cls-36" x="107.4751" y="0">t</tspan><tspan x="109.7975" y="0">etuer </tspan><tspan class="cls-32" x="127.4981" y="0">a</tspan><tspan x="131.0493" y="0">dipisci</tspan><tspan class="cls-37" x="150.3396" y="0">n</tspan><tspan x="154.4143" y="0">g eli</tspan><tspan class="cls-38" x="166.9544" y="0">t</tspan><tspan x="169.45" y="0">, sed diam </tspan><tspan class="cls-32" x="0" y="7.2002">n</tspan><tspan x="4.0737" y="7.2002">onum</tspan><tspan class="cls-39" x="22.3016" y="7.2002">m</tspan><tspan x="28.6081" y="7.2002">y nibh euis</tspan><tspan class="cls-32" x="61.0204" y="7.2002">m</tspan><tspan x="67.398" y="7.2002">od ti</tspan><tspan class="cls-32" x="80.8508" y="7.2002">n</tspan><tspan x="84.9244" y="7.2002">cidunt ut l</tspan><tspan class="cls-37" x="115.7528" y="7.2002">a</tspan><tspan x="119.305" y="7.2002">o</tspan><tspan class="cls-31" x="123.0673" y="7.2002">r</tspan><tspan x="125.3955" y="7.2002">eet dolo</tspan><tspan class="cls-40" x="149.859" y="7.2002">r</tspan><tspan x="152.1862" y="7.2002">e m</tspan><tspan class="cls-37" x="163.7486" y="7.2002">a</tspan><tspan x="167.3008" y="7.2002">gna </tspan><tspan x="0" y="14.3994">aliquam e</tspan><tspan class="cls-41" x="29.9751" y="14.3994">r</tspan><tspan x="32.3277" y="14.3994">at </tspan><tspan class="cls-42" x="39.8757" y="14.3994">v</tspan><tspan x="43.0367" y="14.3994">olut</tspan><tspan class="cls-43" x="54.8871" y="14.3994">p</tspan><tspan x="58.9374" y="14.3994">a</tspan><tspan class="cls-38" x="62.4769" y="14.3994">t</tspan><tspan x="64.9725" y="14.3994">. Ut wisi enim </tspan><tspan class="cls-37" x="106.8242" y="14.3994">a</tspan><tspan x="110.3764" y="14.3994">d minim </tspan><tspan class="cls-42" x="137.6107" y="14.3994">v</tspan><tspan x="140.7718" y="14.3994">eniam, quis </tspan><tspan class="cls-32" x="177.0476" y="14.3994">n</tspan><tspan x="181.1213" y="14.3994">ostrud </tspan><tspan class="cls-44" x="0" y="21.5996">e</tspan><tspan class="cls-45" x="3.5347" y="21.5996">x</tspan><tspan x="6.6237" y="21.5996">e</tspan><tspan class="cls-31" x="10.2479" y="21.5996">r</tspan><tspan x="12.5761" y="21.5996">ci tation ulla</tspan><tspan class="cls-37" x="49.3686" y="21.5996">m</tspan><tspan class="cls-34" x="55.7471" y="21.5996">c</tspan><tspan x="59.0707" y="21.5996">o</tspan><tspan class="cls-30" x="62.833" y="21.5996">r</tspan><tspan x="65.1914" y="21.5996">per suscipit lobo</tspan><tspan class="cls-46" x="114.6573" y="21.5996">r</tspan><tspan x="117.1529" y="21.5996">tis nisl ut aliquip </tspan><tspan class="cls-44" x="167.6802" y="21.5996">e</tspan><tspan x="171.2149" y="21.5996">x </tspan><tspan class="cls-42" x="175.991" y="21.5996">e</tspan><tspan x="179.5247" y="21.5996">a </tspan><tspan class="cls-41" x="0" y="28.7998">c</tspan><tspan x="3.3245" y="28.7998">om</tspan><tspan class="cls-32" x="13.4528" y="28.7998">m</tspan><tspan x="19.8303" y="28.7998">odo </tspan><tspan class="cls-34" x="32.9951" y="28.7998">c</tspan><tspan x="36.3186" y="28.7998">onsequa</tspan><tspan class="cls-33" x="62.3465" y="28.7998">t</tspan><tspan x="64.8431" y="28.7998">. </tspan><tspan x="0" y="43.2002">Duis au</tspan><tspan class="cls-36" x="22.6917" y="43.2002">t</tspan><tspan x="25.0141" y="43.2002">em </tspan><tspan class="cls-42" x="36.5765" y="43.2002">v</tspan><tspan x="39.7375" y="43.2002">el eum i</tspan><tspan class="cls-30" x="63.7622" y="43.2002">r</tspan><tspan x="66.1206" y="43.2002">iu</tspan><tspan class="cls-31" x="71.7723" y="43.2002">r</tspan><tspan x="74.1006" y="43.2002">e dolor in </tspan><tspan class="cls-32" x="103.7303" y="43.2002">h</tspan><tspan x="107.8039" y="43.2002">e</tspan><tspan class="cls-37" x="111.4281" y="43.2002">n</tspan><tspan x="115.5028" y="43.2002">d</tspan><tspan class="cls-31" x="119.5706" y="43.2002">r</tspan><tspan x="121.8988" y="43.2002">e</tspan><tspan class="cls-47" x="125.523" y="43.2002">r</tspan><tspan x="127.8804" y="43.2002">it in vulputa</tspan><tspan class="cls-36" x="163.7359" y="43.2002">t</tspan><tspan x="166.0583" y="43.2002">e </tspan><tspan class="cls-44" x="171.2548" y="43.2002">v</tspan><tspan x="174.4168" y="43.2002">elit esse </tspan><tspan class="cls-32" x="0" y="50.3994">m</tspan><tspan x="6.3776" y="50.3994">olestie </tspan><tspan class="cls-41" x="27.5593" y="50.3994">c</tspan><tspan x="30.8838" y="50.3994">onsequa</tspan><tspan class="cls-33" x="56.9117" y="50.3994">t</tspan><tspan x="59.4083" y="50.3994">, </tspan><tspan class="cls-42" x="62.2522" y="50.3994">v</tspan><tspan x="65.4132" y="50.3994">el illum dolo</tspan><tspan class="cls-31" x="102.2485" y="50.3994">r</tspan><tspan x="104.5767" y="50.3994">e eu </tspan><tspan class="cls-41" x="119.0073" y="50.3994">f</tspan><tspan x="120.9882" y="50.3994">eugiat nulla </tspan><tspan class="cls-48" x="158.3673" y="50.3994">f</tspan><tspan class="cls-32" x="160.3414" y="50.3994">a</tspan><tspan x="163.8926" y="50.3994">cilisis at </tspan><tspan class="cls-44" x="188.716" y="50.3994">v</tspan><tspan x="191.878" y="50.3994">e</tspan><tspan class="cls-31" x="195.5022" y="50.3994">r</tspan><tspan x="197.8304" y="50.3994">o </tspan><tspan x="0" y="57.5996">e</tspan><tspan class="cls-31" x="3.6242" y="57.5996">r</tspan><tspan x="5.9524" y="57.5996">os et </tspan><tspan class="cls-32" x="21.854" y="57.5996">a</tspan><tspan class="cls-41" x="25.4052" y="57.5996">c</tspan><tspan x="28.7298" y="57.5996">cumsan et ius</tspan><tspan class="cls-36" x="70.8383" y="57.5996">t</tspan><tspan x="73.1607" y="57.5996">o odio dignissim qui bla</tspan><tspan class="cls-32" x="144.682" y="57.5996">n</tspan><tspan x="148.7557" y="57.5996">dit p</tspan><tspan class="cls-41" x="162.5139" y="57.5996">r</tspan><tspan class="cls-32" x="164.8665" y="57.5996">a</tspan><tspan x="168.4177" y="57.5996">esent </tspan><tspan x="0" y="64.7998">luptatum zz</tspan><tspan class="cls-30" x="36.2389" y="64.7998">r</tspan><tspan x="38.5972" y="64.7998">il delenit augue duis dolo</tspan><tspan class="cls-31" x="114.3722" y="64.7998">r</tspan><tspan x="116.7004" y="64.7998">e </tspan><tspan class="cls-45" x="121.8969" y="64.7998">t</tspan><tspan x="124.2183" y="64.7998">e </tspan><tspan class="cls-41" x="129.4147" y="64.7998">f</tspan><tspan x="131.3956" y="64.7998">eugait nulla </tspan><tspan class="cls-48" x="168.7748" y="64.7998">f</tspan><tspan class="cls-37" x="170.7488" y="64.7998">a</tspan><tspan x="174.301" y="64.7998">cilisi.</tspan><tspan class="cls-30" x="0" y="79.2002">L</tspan><tspan x="3.486" y="79.2002">o</tspan><tspan class="cls-31" x="7.2484" y="79.2002">r</tspan><tspan x="9.5766" y="79.2002">em ipsum dolor sit a</tspan><tspan class="cls-32" x="71.0125" y="79.2002">m</tspan><tspan x="77.39" y="79.2002">e</tspan><tspan class="cls-33" x="81.0142" y="79.2002">t</tspan><tspan x="83.5108" y="79.2002">, </tspan><tspan class="cls-34" x="86.3546" y="79.2002">c</tspan><tspan x="89.6782" y="79.2002">ons e</tspan><tspan class="cls-35" x="105.6333" y="79.2002">c</tspan><tspan class="cls-36" x="109.0473" y="79.2002">t</tspan><tspan x="111.3697" y="79.2002">etuer </tspan><tspan class="cls-32" x="129.0703" y="79.2002">a</tspan><tspan x="132.6215" y="79.2002">dipisci</tspan><tspan class="cls-37" x="151.9119" y="79.2002">n</tspan><tspan x="155.9865" y="79.2002">g eli</tspan><tspan class="cls-38" x="168.5267" y="79.2002">t</tspan><tspan x="171.0222" y="79.2002">, sed diam </tspan><tspan class="cls-32" x="0" y="86.3994">n</tspan><tspan x="4.0737" y="86.3994">onum</tspan><tspan class="cls-39" x="22.3016" y="86.3994">m</tspan><tspan x="28.6081" y="86.3994">y nibh euis</tspan><tspan class="cls-32" x="61.0204" y="86.3994">m</tspan><tspan x="67.398" y="86.3994">od ti</tspan><tspan class="cls-32" x="80.8508" y="86.3994">n</tspan><tspan x="84.9244" y="86.3994">cidunt ut l</tspan><tspan class="cls-37" x="115.7528" y="86.3994">a</tspan><tspan x="119.305" y="86.3994">o</tspan><tspan class="cls-31" x="123.0673" y="86.3994">r</tspan><tspan x="125.3955" y="86.3994">eet dolo</tspan><tspan class="cls-40" x="149.859" y="86.3994">r</tspan><tspan x="152.1862" y="86.3994">e m</tspan><tspan class="cls-37" x="163.7486" y="86.3994">a</tspan><tspan x="167.3008" y="86.3994">gna </tspan><tspan x="0" y="93.5996">aliquam e</tspan><tspan class="cls-41" x="29.9751" y="93.5996">r</tspan><tspan x="32.3277" y="93.5996">at </tspan><tspan class="cls-42" x="39.8757" y="93.5996">v</tspan><tspan x="43.0367" y="93.5996">olut</tspan><tspan class="cls-43" x="54.8871" y="93.5996">p</tspan><tspan x="58.9374" y="93.5996">a</tspan><tspan class="cls-38" x="62.4769" y="93.5996">t</tspan><tspan x="64.9725" y="93.5996">. Ut wisi enim </tspan><tspan class="cls-37" x="106.8242" y="93.5996">a</tspan><tspan x="110.3764" y="93.5996">d minim </tspan><tspan class="cls-42" x="137.6107" y="93.5996">v</tspan><tspan x="140.7718" y="93.5996">eniam, quis </tspan><tspan class="cls-32" x="177.0476" y="93.5996">n</tspan><tspan x="181.1213" y="93.5996">ostrud </tspan><tspan class="cls-44" x="0" y="100.7998">e</tspan><tspan class="cls-45" x="3.5347" y="100.7998">x</tspan><tspan x="6.6237" y="100.7998">e</tspan><tspan class="cls-31" x="10.2479" y="100.7998">r</tspan><tspan x="12.5761" y="100.7998">ci tation ulla</tspan><tspan class="cls-37" x="49.3686" y="100.7998">m</tspan><tspan class="cls-34" x="55.7471" y="100.7998">c</tspan><tspan x="59.0707" y="100.7998">o</tspan><tspan class="cls-30" x="62.833" y="100.7998">r</tspan><tspan x="65.1914" y="100.7998">per suscipit lobo</tspan><tspan class="cls-46" x="114.6573" y="100.7998">r</tspan><tspan x="117.1529" y="100.7998">tis nisl ut aliquip </tspan><tspan class="cls-44" x="167.6802" y="100.7998">e</tspan><tspan x="171.2149" y="100.7998">x </tspan><tspan class="cls-42" x="175.991" y="100.7998">e</tspan><tspan x="179.5247" y="100.7998">a </tspan><tspan class="cls-41" x="0" y="108">c</tspan><tspan x="3.3245" y="108">om</tspan><tspan class="cls-32" x="13.4528" y="108">m</tspan><tspan x="19.8303" y="108">odo </tspan><tspan class="cls-34" x="32.9951" y="108">c</tspan><tspan x="36.3186" y="108">onsequa</tspan><tspan class="cls-33" x="62.3465" y="108">t</tspan><tspan x="64.8431" y="108">.</tspan></text><rect class="cls-49" x="34.2552" y="435.4149" width="3.7001" height="3.7001"/><rect class="cls-49" x="34.2552" y="478.0552" width="3.7001" height="3.7001"/><rect class="cls-49" x="34.2552" y="520.6955" width="3.7001" height="3.7001"/></g></g></svg>