<svg width="1440" height="492" viewBox="0 0 1440 492" fill="none" xmlns="http://www.w3.org/2000/svg">
<g clip-path="url(#clip0_33_29)">
<path d="M0 270L24 286C48 302 96 334 144 350C192 366 240 366 288 355.3C336 345 384 323 432 302C480 281 528 259 576 275.3C624 291 672 345 720 371.3C768 398 816 398 864 382C912 366 960 334 1008 318C1056 302 1104 302 1152 286C1200 270 1248 238 1296 254C1344 270 1392 334 1416 366L1440 398V526H1416C1392 526 1344 526 1296 526C1248 526 1200 526 1152 526C1104 526 1056 526 1008 526C960 526 912 526 864 526C816 526 768 526 720 526C672 526 624 526 576 526C528 526 480 526 432 526C384 526 336 526 288 526C240 526 192 526 144 526C96 526 48 526 24 526H0V270Z" fill="#131633"/>
</g>
<mask id="mask0_33_29" style="mask-type:alpha" maskUnits="userSpaceOnUse" x="475" y="0" width="74" height="74">
<circle cx="512" cy="37" r="37" fill="#D9D9D9"/>
</mask>
<g mask="url(#mask0_33_29)">
</g>
<defs>
<clipPath id="clip0_33_29">
<rect width="1440" height="320" fill="white" transform="translate(0 206)"/>
</clipPath>
</defs>
</svg>
